<svg aria-hidden="true" aria-label="lock" color="white" height="15px" viewBox="0 0 24 24" version="1.1" width="15px" xmlns="http://www.w3.org/2000/svg" class="sc-krDsej hSyaXz lock-icon"><title/><g fill="none" fill-rule="evenodd" id="Symbols" stroke="none" stroke-width="1"><g id="icon-/-lock-/-locked"><rect id="bounding-box" x="0" y="0" width="24" height="24"/><path d="M20,10 C21.1045695,10 22,10.8954305 22,12 L22,22 C22,23.1045695 21.1045695,24 20,24 L4,24 C2.8954305,24 2,23.1045695 2,22 L2,12 C2,10.8954305 2.8954305,10 4,10 L20,10 Z M12,15 C10.8954305,15 10,15.8954305 10,17 C10,18.1045695 10.8954305,19 12,19 C13.1045695,19 14,18.1045695 14,17 C14,15.8954305 13.1045695,15 12,15 Z" id="Lock-Bottom" fill="#F9F9F9"/><path d="M12,0.75 C15.9239831,0.75 19.1198593,3.86739652 19.2461248,7.76068579 L19.25,8 L19.25,12 L16.75,12 L16.75,8 C16.75,5.37664744 14.6233526,3.25 12,3.25 C9.44951834,3.25 7.36853034,5.26014129 7.25488786,7.782572 L7.25,8 L7.25,12 L4.75,12 L4.75,8 C4.75,3.99593556 7.99593556,0.75 12,0.75 Z" id="Lock_Bar" fill="#F9F9F9"/></g></g></svg>